<?xml version="1.0" encoding="UTF-8"?>
<svg id="Layer_1" xmlns="http://www.w3.org/2000/svg" version="1.1" viewBox="0 0 1080 1080">
  <!-- Generator: Adobe Illustrator 29.8.1, SVG Export Plug-In . SVG Version: 2.1.1 Build 2)  -->
  <defs>
    <style>
      .st0 {
        fill: #a67c52;
      }
    </style>
  </defs>
  <path class="st0" d="M1080,539.44c0,63.91-14.3,121.31-42.91,172.2-28.6,50.91-67.8,90.66-117.59,119.26-49.77,28.61-105.5,42.91-167.18,42.91h-463.65V206.19h463.65c61.68,0,117.41,14.32,167.18,42.91,49.79,28.61,88.99,68.18,117.59,118.7,28.61,50.54,42.91,107.75,42.91,171.64ZM83.59,355.54h150.46l-100.31,217.34v-66.87l100.31,217.34H83.59L0,539.44l83.59-183.9ZM659.82,539.44c0-23.77-5.94-45.87-17.84-66.32-11.87-20.43-28.04-36.59-48.48-48.48-20.43-11.87-42.52-17.83-66.31-17.83s-45.87,5.96-66.32,17.83c-20.43,11.9-36.59,28.06-48.48,48.48-11.87,20.45-17.83,42.55-17.83,66.32s5.96,45.89,17.83,66.31c11.9,20.44,28.06,36.61,48.48,48.48,20.45,11.9,42.55,17.84,66.32,17.84s45.89-5.94,66.31-17.84c20.44-11.87,36.61-28.04,48.48-48.48,11.9-20.43,17.84-42.52,17.84-66.31Z"/>
</svg>